# xmcd CD database file
#
# Track frame offsets:
#	150
#	35362
#	51202
#	70035
#	89307
#	110465
#	134052
#	157527
#	178545
#	189855
#	212860
#	228320
#	251700
#	270427
#
# Disc length: 4144 seconds
#
# Revision: 4
# Processed by: cddbd v1.5PL3 Copyright (c) Steve Scherf et al.
# Submitted via: CDex 1.51
#
DISCID=b7102e0e
DTITLE=Stanley Clarke - The Bass-ic Collection
DYEAR=1997
DGENRE=Jazz
TTITLE0=School Days
TTITLE1=Wild Dog
TTITLE2=We Supply
TTITLE3=Mothership Connection (Star Child)
TTITLE4=Journey To Love
TTITLE5=Hello Jeff
TTITLE6=I Wanna Play for You
TTITLE7=Silly Putty
TTITLE8=Hot Fun
TTITLE9=Rock 'n' Roll Jelly
TTITLE10=Jamican Boy
TTITLE11=Lost In A Thought
TTITLE12=Between Love and Magic
TTITLE13=Life Suite
EXTD=YEAR: 1997
EXTT0=
EXTT1=
EXTT2=
EXTT3=
EXTT4=
EXTT5=
EXTT6=
EXTT7=
EXTT8=
EXTT9=
EXTT10=
EXTT11=
EXTT12=
EXTT13=
PLAYORDER=
